<?xml version="1.0" standalone="no"?>
<!DOCTYPE svg PUBLIC "-//W3C//DTD SVG 20010904//EN"
 "http://www.w3.org/TR/2001/REC-SVG-20010904/DTD/svg10.dtd">
<svg version="1.0" xmlns="http://www.w3.org/2000/svg"
 width="500.000000pt" height="500.000000pt" viewBox="0 0 500.000000 500.000000"
 preserveAspectRatio="xMidYMid meet">
<metadata>
Created by potrace 1.14, written by Peter Selinger 2001-2017
</metadata>
<g transform="translate(0.000000,500.000000) scale(0.100000,-0.100000)"
fill="#000000" stroke="none">
<path d="M645 4012 c-191 -66 -326 -244 -342 -451 -10 -134 26 -250 110 -360
121 -157 313 -217 515 -161 78 22 137 26 147 10 3 -5 13 -10 21 -10 11 0 14
26 14 146 0 164 -8 177 -43 73 -31 -90 -68 -143 -124 -176 -40 -23 -61 -28
-139 -31 -114 -5 -175 12 -226 66 -84 87 -113 207 -106 446 4 128 10 175 27
228 28 87 73 145 140 180 45 23 66 28 128 28 42 0 93 -5 114 -12 79 -23 149
-108 178 -216 21 -77 31 -46 31 98 0 112 -3 140 -14 140 -7 0 -19 -7 -26 -15
-18 -21 -48 -19 -124 10 -82 31 -203 34 -281 7z"/>
<path d="M1535 4012 c-148 -51 -264 -168 -325 -327 -18 -48 -23 -80 -23 -160
0 -122 23 -199 89 -297 54 -80 110 -128 201 -171 64 -30 74 -32 183 -32 111 0
117 1 185 35 125 63 227 188 269 329 23 77 21 213 -4 292 -47 153 -175 285
-322 331 -76 23 -186 23 -253 0z m229 -23 c82 -23 159 -126 185 -249 19 -87
24 -256 12 -359 -21 -172 -65 -254 -161 -303 -45 -24 -66 -28 -133 -28 -107 0
-152 15 -208 70 -83 81 -116 224 -106 459 10 229 64 349 182 402 46 21 166 25
229 8z"/>
<path d="M2180 3995 c0 -12 15 -15 75 -15 l75 0 0 -455 0 -455 -75 0 c-60 0
-75 -3 -75 -15 0 -13 31 -15 220 -15 189 0 220 2 220 15 0 12 -15 15 -75 15
l-75 0 0 215 0 214 63 -6 c84 -7 187 11 264 48 225 107 192 373 -56 449 -56
18 -93 20 -312 20 -215 0 -249 -2 -249 -15z m510 -37 c64 -33 83 -72 88 -180
8 -172 -59 -255 -208 -257 -108 -1 -100 -21 -100 235 l0 224 88 0 c71 0 96 -4
132 -22z"/>
<path d="M2970 3995 c0 -12 15 -15 75 -15 l75 0 0 -455 0 -455 -75 0 c-60 0
-75 -3 -75 -15 0 -13 53 -15 420 -15 l420 0 0 150 c0 121 -3 150 -14 150 -8 0
-18 -19 -25 -46 -24 -94 -78 -167 -153 -205 -32 -16 -59 -19 -193 -19 l-155 0
0 235 0 235 76 0 c59 0 84 -5 109 -20 33 -20 66 -81 80 -147 4 -19 13 -33 21
-33 12 0 14 36 14 215 0 182 -2 215 -15 215 -8 0 -19 -17 -26 -42 -16 -62 -46
-115 -74 -134 -15 -9 -56 -18 -105 -21 l-80 -6 0 207 0 206 138 0 c193 -1 234
-21 294 -147 17 -35 34 -63 39 -63 5 0 9 54 9 120 l0 120 -390 0 c-340 0 -390
-2 -390 -15z"/>
<path d="M3830 3995 c0 -12 15 -15 75 -15 l75 0 0 -455 0 -455 -75 0 c-60 0
-75 -3 -75 -15 0 -13 25 -15 165 -15 140 0 165 2 165 15 0 12 -15 15 -75 15
l-75 0 0 422 0 422 53 -85 c30 -46 156 -247 281 -446 171 -273 232 -363 247
-363 18 0 19 13 19 480 l0 480 75 0 c60 0 75 3 75 15 0 13 -25 15 -165 15
-140 0 -165 -2 -165 -15 0 -12 15 -15 75 -15 l75 0 0 -345 c0 -190 -2 -345 -4
-345 -2 0 -104 162 -226 360 l-223 360 -149 0 c-125 0 -148 -2 -148 -15z"/>
<path d="M1522 2411 l-124 -329 -53 -4 c-72 -6 -174 -57 -220 -110 l-35 -42 0
382 0 382 70 0 c56 0 70 3 70 15 0 13 -31 15 -215 15 -184 0 -215 -2 -215 -15
0 -12 15 -15 75 -15 l75 0 0 -205 0 -205 -215 0 -215 0 0 205 0 205 75 0 c60
0 75 3 75 15 0 13 -31 15 -215 15 -184 0 -215 -2 -215 -15 0 -12 14 -15 70
-15 l70 0 0 -440 0 -440 -70 0 c-56 0 -70 -3 -70 -15 0 -13 29 -15 200 -15
l200 0 2 -232 3 -233 195 0 c195 0 195 0 198 23 l3 22 -170 0 -171 0 -2 353
-3 352 -25 0 -25 0 -3 -127 -3 -128 -59 0 -60 0 0 220 0 220 215 0 215 0 0
-220 0 -220 -75 0 c-60 0 -75 -3 -75 -15 0 -12 19 -15 115 -15 l116 0 -7 -47
c-7 -57 9 -156 36 -219 29 -67 110 -147 183 -180 52 -24 75 -28 142 -28 151 1
262 72 327 209 31 66 33 77 33 175 -1 85 -5 116 -23 162 -42 103 -141 193
-244 218 l-46 12 12 36 13 37 150 3 150 3 50 -133 50 -133 -16 -42 c-14 -40
-18 -43 -53 -43 -27 0 -38 -4 -38 -15 0 -10 10 -15 33 -15 l32 0 1 -93 c1
-127 27 -191 108 -273 80 -79 148 -107 261 -107 120 0 210 40 192 86 -5 14
-13 13 -64 -10 -83 -38 -188 -38 -266 0 -60 30 -115 84 -146 145 -26 51 -44
153 -35 208 l6 44 144 0 c121 0 144 2 144 15 0 12 -13 15 -59 15 l-59 0 -30
78 -30 77 37 23 c41 25 93 42 133 42 22 0 34 -11 63 -54 69 -104 181 -187 273
-202 21 -3 44 -9 51 -13 8 -5 -15 -73 -74 -218 -47 -116 -85 -216 -85 -222 0
-15 35 -14 47 2 6 6 32 67 58 135 l49 122 169 -2 170 -3 55 -132 c48 -118 57
-133 78 -133 13 0 24 4 24 8 0 5 -45 120 -100 256 -55 136 -98 252 -95 257 8
12 62 12 70 -1 3 -5 13 -10 21 -10 11 0 14 25 14 145 l0 145 55 0 c42 0 55 3
55 15 0 13 -29 15 -205 15 -176 0 -205 -2 -205 -15 0 -12 16 -15 85 -15 l85 0
0 -67 c0 -70 -7 -113 -19 -113 -3 0 -18 30 -32 68 -23 59 -29 67 -55 70 -29 3
-30 0 -84 -138 l-55 -141 -38 6 c-94 14 -171 85 -202 183 -6 21 -5 23 13 13
32 -17 42 -13 42 15 0 20 -8 29 -39 42 -37 16 -39 19 -45 76 -22 215 13 415
90 504 52 61 107 84 204 84 95 0 150 -22 203 -81 32 -36 77 -133 77 -166 0 -8
7 -15 15 -15 13 0 15 22 15 135 0 125 -1 135 -19 135 -10 0 -24 -7 -31 -15
-17 -21 -37 -19 -116 11 -61 23 -81 25 -164 22 -120 -4 -182 -32 -281 -126
-79 -74 -132 -168 -150 -267 -12 -64 -6 -194 10 -237 9 -24 8 -26 -31 -31 -22
-3 -66 -18 -98 -34 l-57 -28 -113 300 c-63 165 -125 328 -138 363 -19 50 -28
62 -45 62 -20 0 -36 -38 -145 -329z m157 -49 c34 -89 61 -165 61 -167 0 -3
-60 -5 -134 -5 l-134 0 67 175 c36 96 69 171 73 167 4 -4 34 -80 67 -170z
m-326 -399 c-14 -38 -32 -87 -41 -110 l-16 -43 -103 0 -103 0 12 28 c47 107
154 190 250 192 l27 0 -26 -67z m176 32 c62 -31 104 -78 137 -150 23 -50 28
-74 28 -145 1 -154 -53 -254 -171 -312 -57 -28 -77 -32 -139 -32 -182 2 -304
137 -304 339 l0 85 195 0 c167 0 195 2 195 15 0 12 -14 15 -70 15 -38 0 -70 2
-70 4 0 2 6 19 14 37 7 19 26 67 41 107 l27 74 36 -7 c20 -4 56 -17 81 -30z
m1218 -143 c-23 -29 -133 -72 -124 -49 3 7 22 54 42 106 l38 94 28 -69 c20
-51 24 -72 16 -82z m68 -129 c17 -42 32 -80 33 -85 2 -4 -62 -8 -142 -8 -80 0
-146 3 -146 7 0 4 10 33 22 64 22 56 23 58 68 64 25 4 59 13 75 20 53 24 59
20 90 -62z"/>
<path d="M3030 2705 c0 -12 14 -15 70 -15 l70 0 0 -440 c0 -287 -3 -440 -10
-440 -6 0 -10 50 -10 130 l0 130 -25 0 -25 0 0 -130 0 -130 -35 0 c-24 0 -35
-5 -35 -15 0 -10 11 -15 35 -15 l35 0 2 -232 3 -233 195 0 c195 0 195 0 198
23 l3 22 -175 0 -176 0 0 210 0 210 212 0 c200 0 213 -1 233 -20 12 -12 76
-49 141 -83 134 -71 164 -102 164 -172 0 -151 -205 -201 -358 -89 -23 17 -24
17 -20 -17 3 -31 9 -37 63 -64 50 -25 71 -30 135 -30 83 0 121 15 178 68 38
36 64 113 55 160 -15 81 -59 123 -199 193 l-99 49 87 3 87 3 3 120 3 119 40
-20 c21 -11 41 -20 42 -20 2 0 3 13 3 29 0 25 -6 31 -51 50 -66 27 -167 28
-224 2 -47 -22 -89 -64 -104 -104 -14 -36 -14 -103 -1 -128 10 -18 6 -19 -110
-19 l-120 0 0 230 0 230 71 0 c114 0 156 -32 183 -138 7 -25 17 -47 24 -50 9
-3 12 46 12 202 0 119 -4 206 -9 206 -5 0 -19 -29 -30 -63 -13 -39 -34 -75
-52 -93 -28 -27 -37 -29 -115 -33 l-84 -3 0 196 0 196 138 0 c193 -1 239 -25
293 -154 12 -31 26 -56 31 -56 4 0 8 54 8 120 l0 120 -375 0 c-327 0 -375 -2
-375 -15z m764 -697 c-9 -32 -34 -78 -58 -111 -23 -31 -93 -77 -118 -77 -22 0
-42 54 -35 97 12 69 74 112 165 113 51 0 53 -1 46 -22z"/>
<path d="M3860 2705 c0 -12 14 -15 70 -15 l70 0 0 -440 0 -440 -70 0 c-56 0
-70 -3 -70 -15 0 -13 24 -15 160 -15 136 0 160 2 160 15 0 12 -15 15 -75 15
l-75 0 0 405 c0 223 2 405 4 405 2 0 124 -193 272 -430 187 -298 274 -430 287
-430 16 0 17 29 17 465 l0 465 70 0 c56 0 70 3 70 15 0 13 -24 15 -160 15
-136 0 -160 -2 -160 -15 0 -12 15 -15 75 -15 l75 0 0 -330 c0 -181 -2 -330 -4
-330 -2 0 -100 155 -217 345 l-214 345 -142 0 c-121 0 -143 -2 -143 -15z"/>
</g>
</svg>
